<?xml version="1.0" encoding="UTF-8" standalone="no"?>
<!-- Created with Inkscape (http://www.inkscape.org/) -->

<svg
   xmlns:dc="http://purl.org/dc/elements/1.1/"
   xmlns:cc="http://creativecommons.org/ns#"
   xmlns:rdf="http://www.w3.org/1999/02/22-rdf-syntax-ns#"
   xmlns:svg="http://www.w3.org/2000/svg"
   xmlns="http://www.w3.org/2000/svg"
   xmlns:sodipodi="http://sodipodi.sourceforge.net/DTD/sodipodi-0.dtd"
   xmlns:inkscape="http://www.inkscape.org/namespaces/inkscape"
   width="500"
   height="500"
   id="svg2"
   version="1.1"
   inkscape:version="0.48.2 r9819"
   sodipodi:docname="doily.svg">
  <defs
     id="defs4">
    <clipPath
       id="clipPath4669"
       clipPathUnits="userSpaceOnUse">
      <path
         id="path4671"
         d="M 0.06,573 602,573 602,0 0.06,0 l 0,573 z" />
    </clipPath>
    <clipPath
       id="clipPath4633"
       clipPathUnits="userSpaceOnUse">
      <path
         id="path4635"
         d="M 0.06,573 602,573 602,0 0.06,0 l 0,573 z" />
    </clipPath>
  </defs>
  <sodipodi:namedview
     id="base"
     pagecolor="#ffffff"
     bordercolor="#666666"
     borderopacity="1.0"
     inkscape:pageopacity="0.0"
     inkscape:pageshadow="2"
     inkscape:zoom="0.91341511"
     inkscape:cx="271.12597"
     inkscape:cy="252.64266"
     inkscape:document-units="px"
     inkscape:current-layer="layer2"
     showgrid="false"
     inkscape:window-width="759"
     inkscape:window-height="630"
     inkscape:window-x="363"
     inkscape:window-y="12"
     inkscape:window-maximized="0" />
  <metadata
     id="metadata7">
    <rdf:RDF>
      <cc:Work
         rdf:about="">
        <dc:format>image/svg+xml</dc:format>
        <dc:type
           rdf:resource="http://purl.org/dc/dcmitype/StillImage" />
        <dc:title />
      </cc:Work>
    </rdf:RDF>
  </metadata>
  <g
     inkscape:groupmode="layer"
     id="layer2"
     inkscape:label="Working Layer">
    <path
       style="fill:none;stroke:#000000;stroke-width:3;stroke-linecap:butt;stroke-linejoin:miter;stroke-opacity:1;stroke-miterlimit:4;stroke-dasharray:none"
       d="M 17.525773,193.81443 249.48454,21.649485 479.38144,193.81443 389.69072,471.13402 105.15464,470.10309 z"
       id="path4715"
       inkscape:connector-curvature="0" />
    <path
       style="fill:#0000ff;stroke:#0000e6;stroke-width:3;stroke-linecap:butt;stroke-linejoin:miter;stroke-opacity:1;stroke-miterlimit:4;stroke-dasharray:none"
       d="m 248.45361,23.71134 c 0,240.20619 -1.03093,240.20619 -1.03093,240.20619"
       id="path4719"
       inkscape:connector-curvature="0" />
    <path
       style="fill:none;stroke:#0000e6;stroke-width:3;stroke-linecap:butt;stroke-linejoin:miter;stroke-opacity:1;stroke-miterlimit:4;stroke-dasharray:none"
       d="m 362.8866,110.30928 -112.37114,153.60825 0,0"
       id="path4721"
       inkscape:connector-curvature="0" />
    <path
       style="fill:none;stroke:#000000;stroke-width:1px;stroke-linecap:butt;stroke-linejoin:miter;stroke-opacity:1"
       d="M 570.10309,225.7732 z"
       id="path4723"
       inkscape:connector-curvature="0" />
    <path
       style="fill:none;stroke:#0000e6;stroke-width:3;stroke-linecap:butt;stroke-linejoin:miter;stroke-opacity:1;stroke-miterlimit:4;stroke-dasharray:none"
       d="m 479.38144,193.81443 -222.68041,74.22681 0,0"
       id="path4725"
       inkscape:connector-curvature="0" />
    <path
       style="fill:none;stroke:#0000e6;stroke-width:3;stroke-linecap:butt;stroke-linejoin:miter;stroke-opacity:1;stroke-miterlimit:4;stroke-dasharray:none"
       d="m 434.02062,331.95876 -181.4433,-58.76288 4.12371,1.03092"
       id="path4727"
       inkscape:connector-curvature="0" />
    <path
       style="fill:none;stroke:#0000e6;stroke-width:3;stroke-linecap:butt;stroke-linejoin:miter;stroke-opacity:1;stroke-miterlimit:4;stroke-dasharray:none"
       d="m 248.45361,471.13402 0,-193.81443 0,-1.03093"
       id="path4729"
       inkscape:connector-curvature="0" />
    <path
       style="fill:none;stroke:#0000e6;stroke-width:3;stroke-linecap:butt;stroke-linejoin:miter;stroke-opacity:1;stroke-miterlimit:4;stroke-dasharray:none"
       d="m 110.30928,470.10309 135.05154,-197.93814 0,0"
       id="path4731"
       inkscape:connector-curvature="0" />
    <path
       style="fill:none;stroke:#0000e6;stroke-width:3;stroke-linecap:butt;stroke-linejoin:miter;stroke-opacity:1;stroke-miterlimit:4;stroke-dasharray:none"
       d="m 59.793814,331.95876 179.381446,-58.76288 0,0"
       id="path4733"
       inkscape:connector-curvature="0" />
    <path
       style="fill:none;stroke:#0000e6;stroke-width:3;stroke-linecap:butt;stroke-linejoin:miter;stroke-opacity:1;stroke-miterlimit:4;stroke-dasharray:none"
       d="m 17.525773,194.84536 225.773197,74.2268 1.03093,0"
       id="path4735"
       inkscape:connector-curvature="0" />
    <path
       style="fill:none;stroke:#0000e6;stroke-width:3;stroke-linecap:butt;stroke-linejoin:miter;stroke-opacity:1;stroke-miterlimit:4;stroke-dasharray:none"
       d="m 132.98969,109.27835 112.37113,157.73196 0,0"
       id="path4737"
       inkscape:connector-curvature="0" />
    <path
       style="fill:none;stroke:#0000e6;stroke-width:3;stroke-linecap:butt;stroke-linejoin:miter;stroke-opacity:1;stroke-miterlimit:4;stroke-dasharray:none"
       d="m 250.70748,276.66233 139.03865,192.68348 0,1.09479 0,1.0948"
       id="path4959"
       inkscape:connector-curvature="0" />
    <path
       style="fill:none;stroke:#000000;stroke-width:1px;stroke-linecap:butt;stroke-linejoin:miter;stroke-opacity:1"
       d="M 558.34417,394.89992 z"
       id="path4961"
       inkscape:connector-curvature="0" />
    <path
       style="fill:none;stroke:#e60000;stroke-width:3;stroke-linecap:butt;stroke-linejoin:miter;stroke-opacity:1;stroke-miterlimit:4;stroke-dasharray:none"
       d="M 144.51261,304.03214 C 67.527686,254.30314 71.245465,174.75943 131.3751,108.06429 c 101.36409,-47.517146 157.16982,-6.43089 180.64076,73.3511 104.40192,5.98415 137.23377,57.1636 122.61676,149.98657 C 389.39324,426.57096 324.74357,433.51134 247.4231,382.8572 169.04052,434.20631 105.39243,421.25941 59.118795,332.49675 51.875698,244.49475 80.548837,183.90252 183.92514,180.32059 219.63439,69.62657 297.11828,75.158315 362.37631,109.15908 428.71505,168.7891 428.12905,260.13768 351.42839,305.12694 381.63951,428.71546 320.87908,456.27846 247.4231,470.4406 172.99542,463.28881 114.64812,410.50789 144.51261,304.03214 z"
       id="path4969"
       inkscape:connector-curvature="0"
       sodipodi:nodetypes="ccccccccccc" />
    <path
       sodipodi:end="9.6052281"
       sodipodi:start="3.5145534"
       d="m 410.12976,50.829229 a 9.8531322,9.8531322 0 1 1 -0.5174,1.821862 l 9.69315,1.768365 z"
       sodipodi:ry="9.8531322"
       sodipodi:rx="9.8531322"
       sodipodi:cy="54.419456"
       sodipodi:cx="419.30551"
       id="path7425"
       style="fill:#0000ff;fill-opacity:1;stroke:#0000e6;stroke-width:1;stroke-miterlimit:4;stroke-opacity:1;stroke-dasharray:none"
       sodipodi:type="arc"
       transform="translate(-56.92921,53.644832)" />
    <path
       sodipodi:end="9.6052281"
       sodipodi:start="3.5145534"
       d="m 410.12976,50.829229 a 9.8531322,9.8531322 0 1 1 -0.5174,1.821862 l 9.69315,1.768365 z"
       sodipodi:ry="9.8531322"
       sodipodi:rx="9.8531322"
       sodipodi:cy="54.419456"
       sodipodi:cx="419.30551"
       id="path7427"
       style="fill:#0000ff;fill-opacity:1;stroke:#0000e6;stroke-width:1;stroke-miterlimit:4;stroke-opacity:1;stroke-dasharray:none"
       sodipodi:type="arc"
       transform="translate(16.421887,276.9825)" />
    <path
       sodipodi:end="9.6052281"
       sodipodi:start="3.5145534"
       d="m 410.12976,50.829229 a 9.8531322,9.8531322 0 1 1 -0.5174,1.821862 l 9.69315,1.768365 z"
       sodipodi:ry="9.8531322"
       sodipodi:rx="9.8531322"
       sodipodi:cy="54.419456"
       sodipodi:cx="419.30551"
       id="path7429"
       style="fill:#000000;fill-opacity:1;stroke:#000000;stroke-width:1;stroke-miterlimit:4;stroke-opacity:1;stroke-dasharray:none"
       sodipodi:type="arc"
       transform="matrix(1,0,0,-0.95379849,-402.88364,246.45809)" />
    <path
       transform="matrix(1,0,0,-0.95379849,-284.64605,162.15907)"
       sodipodi:type="arc"
       style="fill:#0000ff;fill-opacity:1;stroke:#0000e6;stroke-width:1;stroke-miterlimit:4;stroke-opacity:1;stroke-dasharray:none"
       id="path7431"
       sodipodi:cx="419.30551"
       sodipodi:cy="54.419456"
       sodipodi:rx="9.8531322"
       sodipodi:ry="9.8531322"
       d="m 410.12976,50.829229 a 9.8531322,9.8531322 0 1 1 -0.5174,1.821862 l 9.69315,1.768365 z"
       sodipodi:start="3.5145534"
       sodipodi:end="9.6052281" />
    <path
       transform="matrix(1,0,0,-0.95379849,-357.99714,383.30715)"
       sodipodi:type="arc"
       style="fill:#0000ff;fill-opacity:1;stroke:#0000e6;stroke-width:1;stroke-miterlimit:4;stroke-opacity:1;stroke-dasharray:none"
       id="path7433"
       sodipodi:cx="419.30551"
       sodipodi:cy="54.419456"
       sodipodi:rx="9.8531322"
       sodipodi:ry="9.8531322"
       d="m 410.12976,50.829229 a 9.8531322,9.8531322 0 1 1 -0.5174,1.821862 l 9.69315,1.768365 z"
       sodipodi:start="3.5145534"
       sodipodi:end="9.6052281" />
    <path
       transform="matrix(1,0,0,-0.95379849,-170.78763,520.15621)"
       sodipodi:type="arc"
       style="fill:#0000ff;fill-opacity:1;stroke:#0000e6;stroke-width:1;stroke-miterlimit:4;stroke-opacity:1;stroke-dasharray:none"
       id="path7435"
       sodipodi:cx="419.30551"
       sodipodi:cy="54.419456"
       sodipodi:rx="9.8531322"
       sodipodi:ry="9.8531322"
       d="m 410.12976,50.829229 a 9.8531322,9.8531322 0 1 1 -0.5174,1.821862 l 9.69315,1.768365 z"
       sodipodi:start="3.5145534"
       sodipodi:end="9.6052281" />
    <path
       transform="matrix(1,0,0,-0.95379849,-108.38446,232.22579)"
       sodipodi:type="arc"
       style="fill:#e60000;fill-opacity:1;stroke:#e60000;stroke-width:1;stroke-miterlimit:4;stroke-opacity:1;stroke-dasharray:none"
       id="path7437"
       sodipodi:cx="419.30551"
       sodipodi:cy="54.419456"
       sodipodi:rx="9.8531322"
       sodipodi:ry="9.8531322"
       d="m 410.12976,50.829229 a 9.8531322,9.8531322 0 1 1 -0.5174,1.821862 l 9.69315,1.768365 z"
       sodipodi:start="3.5145534"
       sodipodi:end="9.6052281" />
    <path
       transform="matrix(1,0,0,-0.95379849,-70.066719,355.93734)"
       sodipodi:type="arc"
       style="fill:#e60000;fill-opacity:1;stroke:#e60000;stroke-width:1;stroke-miterlimit:4;stroke-opacity:1;stroke-dasharray:none"
       id="path7439"
       sodipodi:cx="419.30551"
       sodipodi:cy="54.419456"
       sodipodi:rx="9.8531322"
       sodipodi:ry="9.8531322"
       d="m 410.12976,50.829229 a 9.8531322,9.8531322 0 1 1 -0.5174,1.821862 l 9.69315,1.768365 z"
       sodipodi:start="3.5145534"
       sodipodi:end="9.6052281" />
    <path
       transform="matrix(1,0,0,-0.95379849,-170.78763,430.38323)"
       sodipodi:type="arc"
       style="fill:#e60000;fill-opacity:1;stroke:#e60000;stroke-width:1;stroke-miterlimit:4;stroke-opacity:1;stroke-dasharray:none"
       id="path7441"
       sodipodi:cx="419.30551"
       sodipodi:cy="54.419456"
       sodipodi:rx="9.8531322"
       sodipodi:ry="9.8531322"
       d="m 410.12976,50.829229 a 9.8531322,9.8531322 0 1 1 -0.5174,1.821862 l 9.69315,1.768365 z"
       sodipodi:start="3.5145534"
       sodipodi:end="9.6052281" />
    <path
       transform="matrix(1,0,0,-0.95379849,-274.79292,355.93734)"
       sodipodi:type="arc"
       style="fill:#e60000;fill-opacity:1;stroke:#e60000;stroke-width:1;stroke-miterlimit:4;stroke-opacity:1;stroke-dasharray:none"
       id="path7443"
       sodipodi:cx="419.30551"
       sodipodi:cy="54.419456"
       sodipodi:rx="9.8531322"
       sodipodi:ry="9.8531322"
       d="m 410.12976,50.829229 a 9.8531322,9.8531322 0 1 1 -0.5174,1.821862 l 9.69315,1.768365 z"
       sodipodi:start="3.5145534"
       sodipodi:end="9.6052281" />
    <path
       transform="matrix(1,0,0,-0.95379849,-236.47518,233.32058)"
       sodipodi:type="arc"
       style="fill:#e60000;fill-opacity:1;stroke:#e60000;stroke-width:1;stroke-miterlimit:4;stroke-opacity:1;stroke-dasharray:none"
       id="path7445"
       sodipodi:cx="419.30551"
       sodipodi:cy="54.419456"
       sodipodi:rx="9.8531322"
       sodipodi:ry="9.8531322"
       d="m 410.12976,50.829229 a 9.8531322,9.8531322 0 1 1 -0.5174,1.821862 l 9.69315,1.768365 z"
       sodipodi:start="3.5145534"
       sodipodi:end="9.6052281" />
    <path
       transform="matrix(1,0,0,-0.95379849,-171.88242,75.67046)"
       sodipodi:type="arc"
       style="fill:#000000;fill-opacity:1;stroke:#000000;stroke-width:1;stroke-miterlimit:4;stroke-opacity:1;stroke-dasharray:none"
       id="path7447"
       sodipodi:cx="419.30551"
       sodipodi:cy="54.419456"
       sodipodi:rx="9.8531322"
       sodipodi:ry="9.8531322"
       d="m 410.12976,50.829229 a 9.8531322,9.8531322 0 1 1 -0.5174,1.821862 l 9.69315,1.768365 z"
       sodipodi:start="3.5145534"
       sodipodi:end="9.6052281" />
    <path
       transform="matrix(1,0,0,-0.95379849,60.213587,245.3633)"
       sodipodi:type="arc"
       style="fill:#000000;fill-opacity:1;stroke:#000000;stroke-width:1;stroke-miterlimit:4;stroke-opacity:1;stroke-dasharray:none"
       id="path7449"
       sodipodi:cx="419.30551"
       sodipodi:cy="54.419456"
       sodipodi:rx="9.8531322"
       sodipodi:ry="9.8531322"
       d="m 410.12976,50.829229 a 9.8531322,9.8531322 0 1 1 -0.5174,1.821862 l 9.69315,1.768365 z"
       sodipodi:start="3.5145534"
       sodipodi:end="9.6052281" />
    <path
       transform="matrix(1,0,0,-0.95379849,-28.464605,522.3458)"
       sodipodi:type="arc"
       style="fill:#000000;fill-opacity:1;stroke:#000000;stroke-width:1;stroke-miterlimit:4;stroke-opacity:1;stroke-dasharray:none"
       id="path7451"
       sodipodi:cx="419.30551"
       sodipodi:cy="54.419456"
       sodipodi:rx="9.8531322"
       sodipodi:ry="9.8531322"
       d="m 410.12976,50.829229 a 9.8531322,9.8531322 0 1 1 -0.5174,1.821862 l 9.69315,1.768365 z"
       sodipodi:start="3.5145534"
       sodipodi:end="9.6052281" />
    <path
       transform="matrix(1,0,0,-0.95379849,-312.01586,521.251)"
       sodipodi:type="arc"
       style="fill:#000000;fill-opacity:1;stroke:#000000;stroke-width:1;stroke-miterlimit:4;stroke-opacity:1;stroke-dasharray:none"
       id="path7453"
       sodipodi:cx="419.30551"
       sodipodi:cy="54.419456"
       sodipodi:rx="9.8531322"
       sodipodi:ry="9.8531322"
       d="m 410.12976,50.829229 a 9.8531322,9.8531322 0 1 1 -0.5174,1.821862 l 9.69315,1.768365 z"
       sodipodi:start="3.5145534"
       sodipodi:end="9.6052281" />
    <path
       sodipodi:type="arc"
       style="fill:#fdfdfd;fill-opacity:0.93000001000000021;stroke:#fcfcfc;stroke-width:1;stroke-miterlimit:4;stroke-opacity:1;stroke-dasharray:none"
       id="path7457"
       sodipodi:cx="434.63263"
       sodipodi:cy="43.471531"
       sodipodi:rx="13.13751"
       sodipodi:ry="13.13751"
       d="m 422.39829,38.684561 a 13.13751,13.13751 0 1 1 -0.68986,2.429149 l 12.9242,2.357821 z"
       sodipodi:start="3.5145534"
       sodipodi:end="9.6052281"
       transform="translate(-186.11472,226.62205)" />
  </g>
</svg>
